<?xml version="1.0" encoding="utf-8"?>
<!-- Generator: Adobe Illustrator 17.0.1, SVG Export Plug-In . SVG Version: 6.00 Build 0)  -->
<!DOCTYPE svg PUBLIC "-//W3C//DTD SVG 1.1//EN" "http://www.w3.org/Graphics/SVG/1.1/DTD/svg11.dtd">
<svg version="1.1" id="Слой_1" xmlns="http://www.w3.org/2000/svg" xmlns:xlink="http://www.w3.org/1999/xlink" x="0px" y="0px"
	 width="118.424px" height="117.438px" viewBox="0 0 118.424 117.438" enable-background="new 0 0 118.424 117.438"
	 xml:space="preserve">
<g>
	<path d="M59.55,79.792c-19.875,0-29.862-19.776-29.959-19.969c-0.051-0.11-0.081-0.222-0.081-0.342v-0.199
		c0-0.118,0.03-0.229,0.081-0.333c0.097-0.199,10.084-19.985,29.959-19.985c19.873,0,29.862,19.786,29.964,19.985
		c0.046,0.104,0.074,0.216,0.074,0.333v0.199c0,0.119-0.028,0.232-0.074,0.334C89.412,60.016,79.422,79.792,59.55,79.792
		L59.55,79.792z M31.768,59.387c1.169,2.191,10.715,18.348,27.782,18.43c16.777,0.081,26.765-16.239,27.935-18.43
		c-1.17-2.193-10.172-18.44-27.935-18.44C41.764,40.947,32.937,57.188,31.768,59.387L31.768,59.387z M32,59.387"/>
	<path d="M59.55,70.316c-5.796,0-10.508-4.712-10.508-10.508c0-5.794,4.712-10.507,10.508-10.507
		c5.796,0,10.506,4.712,10.506,10.507C70.056,65.604,65.346,70.316,59.55,70.316L59.55,70.316z M59.55,51.354
		c-4.896,0-8.374,3.837-8.374,8.455c0,4.62,3.754,8.374,8.374,8.374c4.618,0,8.372-3.754,8.372-8.374
		C67.921,55.191,64.443,51.354,59.55,51.354L59.55,51.354z"/>
	<path d="M63.056,59.809c0,1.931-1.569,3.5-3.506,3.5c-1.939,0-3.5-1.569-3.5-3.5c0-1.937,1.561-3.506,3.5-3.506
		C61.486,56.303,63.056,57.872,63.056,59.809L63.056,59.809z M63.056,59.809"/>
	<path d="M59.55,40.251c-0.415,0-0.953-0.135-0.953-0.704v-7.858c0-0.571,0.382-1.041,0.954-1.041c0.579,0,0.922,0.47,0.922,1.041
		v7.858C60.472,40.125,59.97,40.251,59.55,40.251L59.55,40.251z M59.55,40.198"/>
	<path d="M35.93,51.482c-0.249,0-0.496-0.095-0.686-0.286l-5.466-5.454c-0.381-0.381-0.381-1,0-1.384
		c0.383-0.381,1.003-0.381,1.384,0l5.454,5.466c0.381,0.381,0.381,1.001,0,1.372C36.425,51.387,36.176,51.482,35.93,51.482
		L35.93,51.482z M35.93,51.482"/>
	<path d="M45.746,43.648c-0.339,0-0.658-0.168-0.836-0.478l-3.763-6.608c-0.264-0.471-0.103-1.053,0.365-1.315
		c0.449-0.264,1.043-0.103,1.305,0.356l3.763,6.608c0.264,0.461,0.103,1.052-0.365,1.315C46.073,43.61,45.905,43.648,45.746,43.648
		L45.746,43.648z M45.746,43.648"/>
	<path d="M82.727,51.409c-0.253,0-0.499-0.094-0.688-0.282c-0.377-0.367-0.377-0.979,0-1.356l5.401-5.402
		c0.376-0.376,0.989-0.376,1.366,0c0.376,0.379,0.376,0.992,0,1.368l-5.399,5.389C83.219,51.315,82.973,51.409,82.727,51.409
		L82.727,51.409z M82.727,51.409"/>
	<path d="M72.576,43.413c-0.165,0-0.318-0.037-0.464-0.118c-0.443-0.253-0.596-0.823-0.343-1.269l3.633-6.379
		c0.255-0.443,0.816-0.598,1.26-0.344c0.455,0.253,0.608,0.814,0.355,1.269l-3.635,6.379C73.21,43.251,72.892,43.413,72.576,43.413
		L72.576,43.413z M72.576,43.413"/>
	<path d="M12.816,59.093h-2.64v-9.744H7.608L0,59.813v1.776h7.272v4.68h2.904v-4.68h2.64V59.093z M7.272,59.093H4.416L2.88,59.285
		l1.2-0.912l2.496-3.24l0.816-1.728h0.096l-0.216,2.016V59.093z"/>
	<path d="M59.705,0C37.602,0,18.319,12.281,8.303,30.372h2.307C20.43,13.429,38.752,2,59.705,2
		c31.274,0,56.719,25.444,56.719,56.719s-25.444,56.719-56.719,56.719c-20.953,0-39.275-11.429-49.095-28.373H8.303
		c10.017,18.092,29.299,30.373,51.402,30.373c32.378,0,58.719-26.342,58.719-58.719S92.083,0,59.705,0z"/>
</g>
</svg>
