<?xml version="1.0" encoding="utf-8"?>
<!-- Generator: Adobe Illustrator 17.0.1, SVG Export Plug-In . SVG Version: 6.00 Build 0)  -->
<!DOCTYPE svg PUBLIC "-//W3C//DTD SVG 1.1//EN" "http://www.w3.org/Graphics/SVG/1.1/DTD/svg11.dtd">
<svg version="1.1" id="Слой_1" xmlns="http://www.w3.org/2000/svg" xmlns:xlink="http://www.w3.org/1999/xlink" x="0px" y="0px"
	 width="116.008px" height="117.438px" viewBox="0 0 116.008 117.438" enable-background="new 0 0 116.008 117.438"
	 xml:space="preserve">
<g>
	<path d="M71.104,39.457l1.944-1.944l7.421,7.421l-1.944,1.944L71.104,39.457z M71.104,39.457"/>
	<path fill="none" d="M33.919,82.391l-1.171,2.845l2.844-1.172L33.919,82.391z M33.919,82.391"/>
	<path d="M79.18,48.844l7.62-7.62c1.806-1.806,1.806-4.743,0-6.549l-3.492-3.492c-1.806-1.805-4.743-1.806-6.549,0l-1.746,1.746
		c-0.362,0.363-0.362,0.949,0,1.31c0.362,0.361,0.948,0.361,1.309,0l1.747-1.747c1.083-1.083,2.846-1.083,3.928,0l3.492,3.493
		c1.083,1.083,1.083,2.845,0,3.928l-3.711,3.711l-8.076-8.076c-0.362-0.362-0.948-0.362-1.31,0l-3.252,3.253l-9.352,9.351
		L36.502,71.44c-0.002,0.002-0.003,0.004-0.005,0.006c-0.008,0.008-0.015,0.016-0.022,0.024c-0.073,0.079-0.133,0.171-0.174,0.272
		L32.736,80.4c-0.001,0.003-0.002,0.006-0.004,0.009l-2.543,6.176c-0.142,0.346-0.063,0.743,0.201,1.007
		c0.177,0.177,0.414,0.271,0.655,0.271c0.118,0,0.238-0.023,0.352-0.069l6.177-2.544c0.002-0.002,0.004-0.002,0.007-0.003
		l8.659-3.566c0.101-0.041,0.193-0.101,0.273-0.175c0.008-0.007,0.016-0.014,0.023-0.021c0.002-0.002,0.004-0.004,0.006-0.006
		l11.939-11.938l11.35-11.35L79.18,48.844z M37.448,83.3l-2.765-2.765l2.989-7.258c0.356,0.185,0.688,0.426,0.98,0.718
		c0.875,0.875,1.281,2.064,1.085,3.178c-0.052,0.298,0.044,0.602,0.257,0.816c0.213,0.213,0.518,0.309,0.815,0.257
		c1.115-0.196,2.303,0.21,3.178,1.085c0.293,0.292,0.534,0.624,0.718,0.981L37.448,83.3z M45.298,78.02
		c-0.726-0.726-1.607-1.231-2.54-1.486l24.2-24.199c0.361-0.362,0.361-0.948,0-1.31c-0.362-0.362-0.948-0.362-1.31,0L41.448,75.225
		c-0.254-0.933-0.76-1.814-1.486-2.54c-0.355-0.355-0.751-0.66-1.176-0.91l31.009-31.009l3.056,3.056l-3.711,3.711
		c-0.362,0.362-0.362,0.948,0,1.31c0.181,0.181,0.418,0.271,0.655,0.271s0.474-0.09,0.655-0.271l3.711-3.71l3.056,3.055
		l-31.01,31.009C45.958,78.772,45.653,78.376,45.298,78.02L45.298,78.02z M78.526,46.878l-7.422-7.421l1.944-1.944l7.421,7.421
		L78.526,46.878z M33.919,82.391l1.673,1.673l-2.844,1.172L33.919,82.391z M33.919,82.391"/>
	<path d="M2.22,63.145c-0.504-0.128-0.964-0.296-1.38-0.504L0,65.233c0.464,0.24,1.072,0.424,1.824,0.552
		c0.752,0.128,1.48,0.192,2.184,0.192c0.848,0,1.64-0.112,2.376-0.336c0.736-0.224,1.38-0.568,1.932-1.032
		c0.552-0.464,0.984-1.04,1.296-1.728c0.312-0.688,0.468-1.504,0.468-2.448c0-0.752-0.112-1.416-0.336-1.992
		c-0.224-0.576-0.524-1.06-0.9-1.452c-0.376-0.392-0.816-0.692-1.32-0.9c-0.504-0.208-1.036-0.336-1.596-0.384L4.92,55.849v-0.12
		l1.056-0.648l3.384-4.536v-1.704H0.192v2.64h4.032l1.896-0.216l-1.368,1.08l-2.904,3.96v1.656h1.728
		c1.168,0,2.024,0.216,2.568,0.648c0.544,0.432,0.816,1.104,0.816,2.016c0,0.752-0.26,1.392-0.78,1.92
		c-0.52,0.528-1.276,0.792-2.268,0.792C3.288,63.337,2.724,63.273,2.22,63.145z"/>
	<path d="M57.289,0C35.186,0,15.904,12.281,5.887,30.372h2.307C18.015,13.429,36.337,2,57.289,2
		c31.274,0,56.719,25.444,56.719,56.719c0,31.274-25.444,56.719-56.719,56.719c-20.953,0-39.275-11.429-49.095-28.372H5.887
		c10.017,18.092,29.299,30.372,51.402,30.372c32.378,0,58.719-26.341,58.719-58.719C116.008,26.341,89.667,0,57.289,0z"/>
</g>
</svg>
