<?xml version="1.0" encoding="utf-8"?>
<!-- Generator: Adobe Illustrator 17.0.1, SVG Export Plug-In . SVG Version: 6.00 Build 0)  -->
<!DOCTYPE svg PUBLIC "-//W3C//DTD SVG 1.1//EN" "http://www.w3.org/Graphics/SVG/1.1/DTD/svg11.dtd">
<svg version="1.1" id="Слой_1" xmlns="http://www.w3.org/2000/svg" xmlns:xlink="http://www.w3.org/1999/xlink" x="0px" y="0px"
	 width="117.368px" height="117.437px" viewBox="0 0 117.368 117.437" enable-background="new 0 0 117.368 117.437"
	 xml:space="preserve">
<g>
	<path d="M78.276,75.95V31.922c0-0.537-0.435-0.973-0.972-0.973H49.17c-0.694-2.25-2.793-3.889-5.267-3.889
		c-2.435,0-4.565,1.622-5.266,3.889h-3.272c-0.537,0-0.972,0.436-0.972,0.973v55.013c0,0.537,0.436,0.973,0.972,0.973h31.041
		c0.314,0,0.587-0.142,0.765-0.362l10.744-10.838C78.135,76.528,78.276,76.256,78.276,75.95L78.276,75.95z M36.336,32.895h11.132
		v6.807c0,0.894-0.728,1.621-1.621,1.621c-0.894,0-1.621-0.727-1.621-1.621v-3.89c0-0.537-0.436-0.973-0.972-0.973
		c-0.538,0-0.972,0.436-0.972,0.973v3.89c0,1.966,1.599,3.566,3.566,3.566c1.966,0,3.566-1.6,3.566-3.566v-6.807h26.918v42.083
		h-9.919c-0.537,0-0.972,0.435-0.972,0.973v10.013H36.336V32.895z M67.385,76.922h7.563l-7.563,7.656V76.922z M43.903,29.005
		c1.382,0,2.583,0.792,3.174,1.945h-6.349C41.325,29.789,42.54,29.005,43.903,29.005L43.903,29.005z M43.903,29.005"/>
	<path d="M69.524,70.921c0.537,0,0.972-0.435,0.972-0.973c0-0.537-0.435-0.973-0.972-0.973H43.3c-0.537,0-0.973,0.436-0.973,0.973
		c0,0.538,0.436,0.973,0.973,0.973H69.524z M69.524,70.921"/>
	<path d="M43.3,65.898h26.224c0.537,0,0.972-0.435,0.972-0.973c0-0.537-0.435-0.973-0.972-0.973H43.3
		c-0.537,0-0.973,0.436-0.973,0.973C42.327,65.463,42.763,65.898,43.3,65.898L43.3,65.898z M43.3,65.898"/>
	<path d="M43.3,60.938h26.224c0.537,0,0.972-0.435,0.972-0.973c0-0.537-0.435-0.972-0.972-0.972H43.3
		c-0.537,0-0.973,0.436-0.973,0.972C42.327,60.503,42.763,60.938,43.3,60.938L43.3,60.938z M43.3,60.938"/>
	<path d="M43.3,55.916h26.224c0.537,0,0.972-0.435,0.972-0.972c0-0.537-0.435-0.973-0.972-0.973H43.3
		c-0.537,0-0.973,0.436-0.973,0.973C42.327,55.481,42.763,55.916,43.3,55.916L43.3,55.916z M43.3,55.916"/>
	<path d="M43.3,50.894h26.224c0.537,0,0.972-0.435,0.972-0.973c0-0.537-0.435-0.973-0.972-0.973H43.3
		c-0.537,0-0.973,0.436-0.973,0.973C42.327,50.459,42.763,50.894,43.3,50.894L43.3,50.894z M43.3,50.894"/>
	<path d="M82.366,30.95h-1.297c-0.537,0-0.848,0.436-0.848,0.973c0,0.537,0.311,0.973,0.848,0.973h0.324v53.068H71.135
		c-0.537,0-0.972,0.436-0.972,0.973c0,0.537,0.436,0.973,0.972,0.973h11.23c0.537,0,0.972-0.436,0.972-0.973V31.922
		C83.338,31.386,82.903,30.95,82.366,30.95L82.366,30.95z M82.366,30.95"/>
	<path d="M9.384,52.14c-0.24-0.552-0.568-1.012-0.984-1.38c-0.416-0.368-0.912-0.648-1.488-0.84s-1.208-0.288-1.896-0.288
		c-1.072,0-2.004,0.156-2.796,0.468s-1.5,0.724-2.124,1.236l1.248,2.208c0.368-0.336,0.82-0.612,1.356-0.828
		c0.536-0.216,1.06-0.324,1.572-0.324c0.816,0,1.412,0.212,1.788,0.636c0.376,0.424,0.564,0.964,0.564,1.62
		c0,0.544-0.108,1.12-0.324,1.728c-0.216,0.608-0.508,1.236-0.876,1.884c-0.368,0.648-0.784,1.292-1.248,1.932
		c-0.464,0.64-0.94,1.26-1.428,1.86c-0.488,0.6-0.972,1.168-1.452,1.704C0.816,64.293,0.384,64.761,0,65.16v1.608h10.104v-2.64
		H5.496l-1.728,0.336v-0.12L5.04,63.36c0.528-0.624,1.068-1.308,1.62-2.052s1.056-1.516,1.512-2.316
		c0.456-0.8,0.832-1.616,1.128-2.448c0.296-0.832,0.444-1.656,0.444-2.472C9.744,53.337,9.624,52.692,9.384,52.14z"/>
	<path d="M58.505,0.241c-22.103,0-41.385,12.281-51.402,30.372H9.41C19.231,13.67,37.553,2.241,58.505,2.241
		c31.274,0,56.719,25.444,56.719,56.719s-25.444,56.718-56.719,56.718c-20.953,0-39.275-11.429-49.096-28.372H7.103
		c10.017,18.092,29.299,30.372,51.402,30.372c32.378,0,58.719-26.341,58.719-58.718S90.883,0.241,58.505,0.241z"/>
</g>
</svg>
