<?xml version="1.0" encoding="utf-8"?>
<!-- Generator: Adobe Illustrator 17.0.1, SVG Export Plug-In . SVG Version: 6.00 Build 0)  -->
<!DOCTYPE svg PUBLIC "-//W3C//DTD SVG 1.1//EN" "http://www.w3.org/Graphics/SVG/1.1/DTD/svg11.dtd">
<svg version="1.1" id="Слой_1" xmlns="http://www.w3.org/2000/svg" xmlns:xlink="http://www.w3.org/1999/xlink" x="0px" y="0px"
	 width="117.368px" height="117.437px" viewBox="0 0 117.368 117.437" enable-background="new 0 0 117.368 117.437"
	 xml:space="preserve">
<path d="M0.912,67.263h9.576v-2.64H7.224V50.175H5.472L0,54.591l1.32,1.8l2.136-1.464l1.152-1.416l-0.36,1.632v9.48H0.912V67.263z"
	/>
<path d="M73.69,34.797c0.424-0.464,1.144-0.498,1.609-0.074c0.464,0.422,0.498,1.144,0.075,1.608l-4.295,4.713
	c-0.424,0.466-1.145,0.498-1.609,0.075c-0.465-0.423-0.499-1.143-0.075-1.609L73.69,34.797z M73.69,34.797"/>
<path d="M62.158,27.927c0.614,0.135,1.002,0.741,0.87,1.356l-1.363,6.227c-0.044,0.202-0.14,0.379-0.271,0.524
	c-0.265,0.291-0.673,0.436-1.086,0.346c-0.615-0.135-1.003-0.742-0.868-1.356l1.364-6.227
	C60.935,28.181,61.543,27.793,62.158,27.927L62.158,27.927z M62.158,27.927"/>
<path d="M81.852,46.439c0.599-0.19,1.238,0.141,1.429,0.74c0.128,0.403,0.021,0.822-0.244,1.113
	c-0.13,0.143-0.297,0.255-0.495,0.318l-6.074,1.934c-0.6,0.19-1.24-0.14-1.431-0.739c-0.191-0.6,0.14-1.241,0.74-1.431
	L81.852,46.439z M81.852,46.439"/>
<path d="M67.865,42.584c2.889,2.633,4.792,6.051,5.5,9.885c1.198,6.469,4.326,12.133,9.016,16.408l5.077,4.627
	c2.252,2.053,2.414,5.555,0.362,7.807l-3.462,3.798c-2.053,2.253-5.555,2.415-7.807,0.362l-5.077-4.627
	c-4.64-4.229-10.732-6.87-17.153-7.438c-3.954-0.349-7.587-1.966-10.506-4.676c-3.406-3.16-5.406-7.475-5.636-12.15
	c-0.229-4.674,1.342-9.166,4.422-12.642c3.176-3.589,7.566-5.708,12.351-5.963C59.737,37.72,64.323,39.357,67.865,42.584
	L67.865,42.584z M71.125,52.883c-0.618-3.341-2.276-6.321-4.795-8.616c-3.087-2.814-7.086-4.241-11.258-4.018
	c-4.172,0.222-7.992,2.069-10.768,5.2c-5.532,6.242-5.056,15.938,1.058,21.611c2.544,2.362,5.712,3.771,9.16,4.077
	c6.767,0.598,13.201,3.342,18.166,7.737l7.827-8.588C75.631,65.71,72.386,59.701,71.125,52.883L71.125,52.883z M85.924,75.187
	l-0.266-0.243l-8.824,7.704l0.681,0.621l8.785-7.67C86.187,75.454,86.064,75.315,85.924,75.187L85.924,75.187z M83.963,73.4
	l-1.75-1.595l-7.839,8.602l0.764,0.697L83.963,73.4z M86.949,78.056l-7.435,6.489c1.114,0.266,2.335-0.065,3.16-0.97l3.462-3.798
	C86.59,79.279,86.859,78.678,86.949,78.056L86.949,78.056z M86.949,78.056"/>
<path d="M47.379,28.613c0.599-0.19,1.238,0.141,1.429,0.74l1.934,6.074c0.128,0.403,0.021,0.823-0.244,1.113
	c-0.13,0.143-0.298,0.255-0.495,0.317c-0.6,0.192-1.241-0.14-1.432-0.739l-1.934-6.075C46.447,29.444,46.778,28.802,47.379,28.613
	L47.379,28.613z M47.379,28.613"/>
<path d="M65.104,45.614c0.316,0.288,0.619,0.591,0.905,0.903c0.4,0.439,0.394,1.105,0.002,1.535
	c-0.023,0.026-0.048,0.051-0.075,0.075c-0.464,0.423-1.185,0.392-1.609-0.073c-0.239-0.261-0.493-0.515-0.757-0.756
	c-4.64-4.229-11.856-3.894-16.085,0.746c-0.424,0.465-1.144,0.498-1.609,0.075c-0.465-0.423-0.498-1.144-0.075-1.609
	C50.876,40.941,59.535,40.539,65.104,45.614L65.104,45.614z M65.104,45.614"/>
<path d="M66.841,49.496c0.573-0.26,1.247-0.004,1.507,0.568c0.452,0.998,0.783,2.058,0.985,3.15c0.068,0.365-0.046,0.72-0.278,0.975
	c-0.161,0.177-0.38,0.305-0.633,0.353c-0.619,0.114-1.212-0.295-1.327-0.913c-0.169-0.912-0.445-1.794-0.821-2.626
	C66.014,50.43,66.269,49.755,66.841,49.496L66.841,49.496z M66.841,49.496"/>
<path d="M85.658,74.944"/>
<path d="M36.532,36.52l4.713,4.296c0.464,0.423,0.498,1.145,0.075,1.609c-0.425,0.466-1.145,0.498-1.609,0.075l-4.713-4.296
	c-0.465-0.424-0.499-1.143-0.075-1.609C35.346,36.131,36.067,36.097,36.532,36.52L36.532,36.52z M36.532,36.52"/>
<path d="M66.504,70.08c0.574,0.258,0.83,0.931,0.573,1.506c-0.05,0.113-0.117,0.214-0.197,0.302
	c-0.322,0.354-0.848,0.478-1.307,0.272c-3.455-1.549-7.119-2.503-10.89-2.836c-0.797-0.07-1.588-0.21-2.351-0.414
	c-0.607-0.163-0.968-0.788-0.805-1.396c0.163-0.607,0.788-0.968,1.396-0.805c0.636,0.17,1.295,0.287,1.961,0.345
	C58.907,67.41,62.816,68.429,66.504,70.08L66.504,70.08z M66.504,70.08"/>
<path d="M35.709,50.231c0.615,0.134,1.004,0.742,0.87,1.355c-0.045,0.202-0.14,0.38-0.271,0.523
	c-0.265,0.291-0.674,0.436-1.086,0.346l-6.227-1.364c-0.615-0.134-1.003-0.741-0.868-1.356c0.133-0.614,0.74-1.003,1.355-0.868
	L35.709,50.231z M35.709,50.231"/>
<path d="M49.58,65.189c0.522,0.352,0.662,1.058,0.312,1.581c-0.032,0.047-0.067,0.092-0.104,0.132
	c-0.375,0.411-1.001,0.497-1.475,0.178c-0.599-0.402-1.176-0.858-1.71-1.356c-0.462-0.427-0.485-1.15-0.06-1.608
	c0.429-0.462,1.149-0.488,1.61-0.061C48.6,64.473,49.082,64.854,49.58,65.189L49.58,65.189z M49.58,65.189"/>
<path d="M35.626,61.152c0.598-0.19,1.238,0.14,1.43,0.74c0.128,0.402,0.021,0.822-0.244,1.113c-0.13,0.142-0.298,0.255-0.495,0.318
	l-6.074,1.934c-0.6,0.19-1.24-0.141-1.431-0.74c-0.191-0.599,0.14-1.24,0.741-1.43L35.626,61.152z M35.626,61.152"/>
<path d="M51.786,75.316c0.615,0.134,1.003,0.741,0.87,1.355l-1.363,6.227c-0.044,0.201-0.141,0.379-0.272,0.523
	c-0.265,0.291-0.673,0.436-1.086,0.346c-0.614-0.135-1.002-0.741-0.868-1.356l1.363-6.228C50.563,75.57,51.171,75.181,51.786,75.316
	L51.786,75.316z M51.786,75.316"/>
<path d="M41.017,70.649c0.423-0.464,1.144-0.498,1.609-0.075c0.464,0.423,0.497,1.145,0.075,1.609l-4.296,4.713
	c-0.424,0.466-1.144,0.498-1.608,0.075c-0.465-0.423-0.499-1.143-0.075-1.608L41.017,70.649z M41.017,70.649"/>
<path d="M58.649,0C35.408,0,15.28,13.573,5.769,33.207h2.247C17.372,14.715,36.548,2,58.649,2c31.274,0,56.719,25.444,56.719,56.719
	s-25.444,56.718-56.719,56.718c-22.101,0-41.277-12.715-50.633-31.207H5.769c9.511,19.634,29.639,33.207,52.88,33.207
	c32.378,0,58.719-26.341,58.719-58.718S91.027,0,58.649,0z"/>
</svg>
